{
	"asset":{
		"generator":"Khronos glTF Blender I/O v3.6.27",
		"version":"2.0"
	},
	"scene":0,
	"scenes":[
		{
			"name":"Scene",
			"nodes":[
				1
			]
		}
	],
	"nodes":[
		{
			"mesh":0,
			"name":"SOLID"
		},
		{
			"children":[
				0
			],
			"name":"Heated Bed Kobra Plus"
		}
	],
	"materials":[
		{
			"doubleSided":true,
			"name":"mat_0",
			"pbrMetallicRoughness":{
				"baseColorFactor":[
					0.5271151065826416,
					0.5271151065826416,
					0.5271151065826416,
					1
				],
				"roughnessFactor":0.2121320366859436
			}
		},
		{
			"doubleSided":true,
			"name":"mat_1",
			"pbrMetallicRoughness":{
				"baseColorFactor":[
					0.07036009430885315,
					0.07036009430885315,
					0.07036009430885315,
					1
				],
				"roughnessFactor":0.2121320366859436
			}
		},
		{
			"doubleSided":true,
			"name":"mat_2",
			"pbrMetallicRoughness":{
				"baseColorFactor":[
					0.7230551242828369,
					0.8069522380828857,
					1,
					1
				],
				"roughnessFactor":0.2121320366859436
			}
		},
		{
			"doubleSided":true,
			"name":"mat_3",
			"pbrMetallicRoughness":{
				"baseColorFactor":[
					0.8069522380828857,
					0.5840784311294556,
					0,
					1
				],
				"roughnessFactor":0.2121320366859436
			}
		},
		{
			"doubleSided":true,
			"name":"mat_4",
			"pbrMetallicRoughness":{
				"baseColorFactor":[
					0,
					0,
					0,
					1
				],
				"roughnessFactor":0.2121320366859436
			}
		},
		{
			"doubleSided":true,
			"name":"mat_5",
			"pbrMetallicRoughness":{
				"baseColorFactor":[
					1,
					0,
					0,
					1
				],
				"roughnessFactor":0.2121320366859436
			}
		},
		{
			"doubleSided":true,
			"name":"mat_6",
			"pbrMetallicRoughness":{
				"roughnessFactor":0.2121320366859436
			}
		},
		{
			"doubleSided":true,
			"name":"mat_7",
			"pbrMetallicRoughness":{
				"baseColorFactor":[
					0.05126945674419403,
					0.05126945674419403,
					0.05126945674419403,
					1
				],
				"roughnessFactor":0.2121320366859436
			}
		},
		{
			"doubleSided":true,
			"name":"mat_8",
			"pbrMetallicRoughness":{
				"baseColorFactor":[
					0.366252601146698,
					0.13286831974983215,
					0.03560131415724754,
					1
				],
				"roughnessFactor":0.2121320366859436
			}
		}
	],
	"meshes":[
		{
			"name":"SOLID",
			"primitives":[
				{
					"attributes":{
						"POSITION":0,
						"NORMAL":1
					},
					"indices":2,
					"material":0
				},
				{
					"attributes":{
						"POSITION":3,
						"NORMAL":4
					},
					"indices":5,
					"material":1
				},
				{
					"attributes":{
						"POSITION":6,
						"NORMAL":7
					},
					"indices":8,
					"material":2
				},
				{
					"attributes":{
						"POSITION":9,
						"NORMAL":10
					},
					"indices":11,
					"material":3
				},
				{
					"attributes":{
						"POSITION":12,
						"NORMAL":13
					},
					"indices":14,
					"material":4
				},
				{
					"attributes":{
						"POSITION":15,
						"NORMAL":16
					},
					"indices":17,
					"material":5
				},
				{
					"attributes":{
						"POSITION":18,
						"NORMAL":19
					},
					"indices":20,
					"material":6
				},
				{
					"attributes":{
						"POSITION":21,
						"NORMAL":22
					},
					"indices":23,
					"material":7
				},
				{
					"attributes":{
						"POSITION":24,
						"NORMAL":25
					},
					"indices":26,
					"material":8
				}
			]
		}
	],
	"accessors":[
		{
			"bufferView":0,
			"componentType":5126,
			"count":1468,
			"max":[
				-0.1190042793750763,
				-0.12700000405311584,
				0.0010000000474974513
			],
			"min":[
				-0.13849571347236633,
				-0.1329747438430786,
				0
			],
			"type":"VEC3"
		},
		{
			"bufferView":1,
			"componentType":5126,
			"count":1468,
			"type":"VEC3"
		},
		{
			"bufferView":2,
			"componentType":5123,
			"count":6648,
			"type":"SCALAR"
		},
		{
			"bufferView":3,
			"componentType":5126,
			"count":873,
			"max":[
				0.14900000393390656,
				0.15399999916553497,
				0.003000000026077032
			],
			"min":[
				-0.14900000393390656,
				-0.15399999916553497,
				0
			],
			"type":"VEC3"
		},
		{
			"bufferView":4,
			"componentType":5126,
			"count":873,
			"type":"VEC3"
		},
		{
			"bufferView":5,
			"componentType":5123,
			"count":2475,
			"type":"SCALAR"
		},
		{
			"bufferView":6,
			"componentType":5126,
			"count":2040,
			"max":[
				0.1550000011920929,
				0.1599999964237213,
				0
			],
			"min":[
				-0.1550000011920929,
				-0.1599999964237213,
				-0.003000000026077032
			],
			"type":"VEC3"
		},
		{
			"bufferView":7,
			"componentType":5126,
			"count":2040,
			"type":"VEC3"
		},
		{
			"bufferView":8,
			"componentType":5123,
			"count":6780,
			"type":"SCALAR"
		},
		{
			"bufferView":9,
			"componentType":5126,
			"count":842,
			"max":[
				0.1550000011920929,
				0.1599999964237213,
				6.776263578034403e-21
			],
			"min":[
				-0.1550000011920929,
				-0.1599999964237213,
				-4.336808689942018e-19
			],
			"type":"VEC3"
		},
		{
			"bufferView":10,
			"componentType":5126,
			"count":842,
			"type":"VEC3"
		},
		{
			"bufferView":11,
			"componentType":5123,
			"count":2598,
			"type":"SCALAR"
		},
		{
			"bufferView":12,
			"componentType":5126,
			"count":434,
			"max":[
				-0.12014423310756683,
				-0.11307532340288162,
				0.000750000006519258
			],
			"min":[
				-0.1376826912164688,
				-0.13474999368190765,
				-6.776263578034403e-21
			],
			"type":"VEC3"
		},
		{
			"bufferView":13,
			"componentType":5126,
			"count":434,
			"type":"VEC3"
		},
		{
			"bufferView":14,
			"componentType":5123,
			"count":984,
			"type":"SCALAR"
		},
		{
			"bufferView":15,
			"componentType":5126,
			"count":73,
			"max":[
				-0.11999999731779099,
				-0.1313267946243286,
				0.000750000006519258
			],
			"min":[
				-0.12725000083446503,
				-0.13474999368190765,
				0
			],
			"type":"VEC3"
		},
		{
			"bufferView":16,
			"componentType":5126,
			"count":73,
			"type":"VEC3"
		},
		{
			"bufferView":17,
			"componentType":5123,
			"count":138,
			"type":"SCALAR"
		},
		{
			"bufferView":18,
			"componentType":5126,
			"count":43,
			"max":[
				-0.13075000047683716,
				-0.132626473903656,
				0.000750000006519258
			],
			"min":[
				-0.13124999403953552,
				-0.13474999368190765,
				0
			],
			"type":"VEC3"
		},
		{
			"bufferView":19,
			"componentType":5126,
			"count":43,
			"type":"VEC3"
		},
		{
			"bufferView":20,
			"componentType":5123,
			"count":69,
			"type":"SCALAR"
		},
		{
			"bufferView":21,
			"componentType":5126,
			"count":176,
			"max":[
				0.1550000011920929,
				0.1599999964237213,
				-0.003000000026077032
			],
			"min":[
				-0.1550000011920929,
				-0.1599999964237213,
				-0.0044999998062849045
			],
			"type":"VEC3"
		},
		{
			"bufferView":22,
			"componentType":5126,
			"count":176,
			"type":"VEC3"
		},
		{
			"bufferView":23,
			"componentType":5123,
			"count":468,
			"type":"SCALAR"
		},
		{
			"bufferView":24,
			"componentType":5126,
			"count":588,
			"max":[
				0.1550000011920929,
				0.16977055370807648,
				-0.0044999998062849045
			],
			"min":[
				-0.1550000011920929,
				-0.1599999964237213,
				-0.004999999888241291
			],
			"type":"VEC3"
		},
		{
			"bufferView":25,
			"componentType":5126,
			"count":588,
			"type":"VEC3"
		},
		{
			"bufferView":26,
			"componentType":5123,
			"count":1656,
			"type":"SCALAR"
		}
	],
	"bufferViews":[
		{
			"buffer":0,
			"byteLength":17616,
			"byteOffset":0,
			"target":34962
		},
		{
			"buffer":0,
			"byteLength":17616,
			"byteOffset":17616,
			"target":34962
		},
		{
			"buffer":0,
			"byteLength":13296,
			"byteOffset":35232,
			"target":34963
		},
		{
			"buffer":0,
			"byteLength":10476,
			"byteOffset":48528,
			"target":34962
		},
		{
			"buffer":0,
			"byteLength":10476,
			"byteOffset":59004,
			"target":34962
		},
		{
			"buffer":0,
			"byteLength":4950,
			"byteOffset":69480,
			"target":34963
		},
		{
			"buffer":0,
			"byteLength":24480,
			"byteOffset":74432,
			"target":34962
		},
		{
			"buffer":0,
			"byteLength":24480,
			"byteOffset":98912,
			"target":34962
		},
		{
			"buffer":0,
			"byteLength":13560,
			"byteOffset":123392,
			"target":34963
		},
		{
			"buffer":0,
			"byteLength":10104,
			"byteOffset":136952,
			"target":34962
		},
		{
			"buffer":0,
			"byteLength":10104,
			"byteOffset":147056,
			"target":34962
		},
		{
			"buffer":0,
			"byteLength":5196,
			"byteOffset":157160,
			"target":34963
		},
		{
			"buffer":0,
			"byteLength":5208,
			"byteOffset":162356,
			"target":34962
		},
		{
			"buffer":0,
			"byteLength":5208,
			"byteOffset":167564,
			"target":34962
		},
		{
			"buffer":0,
			"byteLength":1968,
			"byteOffset":172772,
			"target":34963
		},
		{
			"buffer":0,
			"byteLength":876,
			"byteOffset":174740,
			"target":34962
		},
		{
			"buffer":0,
			"byteLength":876,
			"byteOffset":175616,
			"target":34962
		},
		{
			"buffer":0,
			"byteLength":276,
			"byteOffset":176492,
			"target":34963
		},
		{
			"buffer":0,
			"byteLength":516,
			"byteOffset":176768,
			"target":34962
		},
		{
			"buffer":0,
			"byteLength":516,
			"byteOffset":177284,
			"target":34962
		},
		{
			"buffer":0,
			"byteLength":138,
			"byteOffset":177800,
			"target":34963
		},
		{
			"buffer":0,
			"byteLength":2112,
			"byteOffset":177940,
			"target":34962
		},
		{
			"buffer":0,
			"byteLength":2112,
			"byteOffset":180052,
			"target":34962
		},
		{
			"buffer":0,
			"byteLength":936,
			"byteOffset":182164,
			"target":34963
		},
		{
			"buffer":0,
			"byteLength":7056,
			"byteOffset":183100,
			"target":34962
		},
		{
			"buffer":0,
			"byteLength":7056,
			"byteOffset":190156,
			"target":34962
		},
		{
			"buffer":0,
			"byteLength":3312,
			"byteOffset":197212,
			"target":34963
		}
	],
	"buffers":[
		{
			"byteLength":200524,
			"uri":"data:application/octet-stream;base64,"
		}
	]
}
