<?xml version="1.0" standalone="no"?>
<!DOCTYPE svg PUBLIC "-//W3C//DTD SVG 20010904//EN"
 "http://www.w3.org/TR/2001/REC-SVG-20010904/DTD/svg10.dtd">
<svg version="1.0" xmlns="http://www.w3.org/2000/svg"
 width="1024.000000pt" height="1024.000000pt" viewBox="0 0 1024.000000 1024.000000"
 preserveAspectRatio="xMidYMid meet">

<g transform="translate(0.000000,1024.000000) scale(0.100000,-0.100000)"
fill="#000000" stroke="none">
<path d="M0 5120 l0 -5120 5120 0 5120 0 0 5120 0 5120 -5120 0 -5120 0 0
-5120z m5351 3679 c74 -23 574 -270 744 -369 33 -19 337 -176 581 -299 273
-138 521 -278 591 -331 54 -42 75 -79 129 -225 27 -74 27 -294 0 -324 -19 -21
-149 -98 -356 -211 -63 -35 -129 -71 -147 -81 -18 -10 -61 -34 -95 -52 -35
-19 -137 -75 -228 -124 -91 -50 -203 -111 -250 -135 -47 -25 -112 -60 -145
-78 -33 -18 -103 -55 -155 -82 -90 -48 -143 -76 -270 -145 -30 -17 -95 -52
-145 -78 -49 -26 -94 -51 -100 -55 -5 -4 -109 -58 -230 -120 -121 -62 -242
-125 -270 -140 -27 -15 -106 -56 -175 -92 -69 -36 -150 -79 -180 -95 -30 -17
-95 -51 -143 -77 -49 -26 -99 -53 -112 -62 -14 -9 -26 -11 -29 -5 -3 5 -7 326
-9 713 -3 679 -4 705 -23 763 -37 108 -73 164 -162 254 -124 126 -239 197
-522 323 -38 18 -137 63 -245 113 -38 17 -99 45 -135 60 -71 31 -90 43 -90 56
0 5 78 47 173 95 207 104 507 258 597 306 168 91 228 123 265 144 22 13 58 32
80 43 22 11 69 37 105 57 113 63 352 181 425 210 193 76 369 91 526 43z
m-2412 -1424 c39 -19 74 -35 77 -35 2 0 114 -54 247 -119 268 -132 299 -155
348 -257 l29 -62 0 -975 c0 -868 2 -977 16 -991 19 -19 85 -56 344 -189 113
-57 234 -120 270 -139 36 -19 117 -62 180 -95 63 -33 165 -88 225 -122 245
-137 339 -171 478 -171 120 0 225 42 483 193 61 35 160 90 220 122 60 32 138
75 174 95 36 20 128 70 205 110 77 40 172 90 210 110 39 20 126 66 195 102 69
36 150 79 180 95 30 17 156 81 280 143 124 62 242 124 263 137 22 14 41 22 44
19 3 -3 5 -142 4 -308 -2 -247 -5 -312 -18 -353 -44 -136 -111 -191 -429 -355
-183 -95 -305 -160 -384 -203 -30 -16 -77 -41 -105 -55 -27 -14 -66 -35 -85
-47 -19 -12 -91 -51 -160 -87 -69 -36 -235 -127 -369 -201 -364 -203 -477
-247 -668 -262 -104 -8 -236 7 -328 37 -79 27 -287 131 -513 256 -100 56 -184
102 -186 102 -2 0 -39 20 -82 43 -98 55 -315 167 -639 332 -137 70 -281 146
-320 168 -143 84 -246 223 -265 356 -10 71 -14 2624 -4 2634 9 9 0 12 83 -28z
m4471 -1203 l0 -387 -68 -36 c-37 -20 -125 -67 -196 -103 -72 -37 -135 -70
-140 -75 -6 -5 -51 -30 -101 -56 -49 -26 -112 -60 -140 -75 -27 -15 -167 -87
-310 -160 -143 -73 -279 -143 -303 -157 -40 -22 -43 -23 -49 -6 -4 10 -7 186
-8 391 l0 374 60 32 c98 52 301 159 440 231 72 38 211 111 310 163 99 52 241
126 315 165 74 39 144 76 154 83 11 7 23 11 28 8 4 -3 8 -179 8 -392z m694
-3377 c133 -23 223 -76 270 -159 46 -80 48 -77 -65 -135 -56 -28 -106 -51
-113 -51 -6 0 -22 21 -36 48 -61 116 -261 138 -297 32 -8 -23 -12 -121 -12
-295 -1 -228 1 -264 17 -295 30 -61 118 -86 198 -55 51 19 101 66 110 102 4
13 11 23 17 23 15 0 135 -73 176 -108 l34 -28 -26 -41 c-76 -120 -234 -183
-427 -169 -196 15 -306 91 -346 239 -10 39 -14 127 -14 345 l0 292 29 63 c48
105 130 166 257 191 92 19 126 19 228 1z m-2247 -20 c107 -32 192 -116 213
-211 10 -45 -1 -64 -37 -64 -13 0 -59 -7 -101 -16 -42 -9 -83 -17 -90 -18 -8
0 -21 19 -30 43 -20 52 -52 78 -107 86 -77 11 -148 -62 -125 -130 18 -53 56
-83 203 -156 226 -113 276 -156 300 -265 24 -103 -3 -195 -79 -269 -131 -127
-383 -153 -572 -58 -55 28 -162 132 -162 159 0 21 231 133 238 116 10 -29 65
-82 106 -101 114 -56 232 6 193 101 -21 50 -65 82 -212 153 -155 75 -230 136
-265 217 -19 45 -22 64 -17 142 6 128 39 185 139 245 83 49 286 63 405 26z
m-4137 -83 l0 -99 -107 -6 c-58 -4 -150 -7 -205 -7 l-98 0 0 -115 0 -115 183
-2 182 -3 3 -102 3 -103 -186 0 -185 0 -1 -207 c-1 -115 -4 -219 -8 -233 -7
-25 -8 -25 -134 -28 l-127 -3 0 561 0 560 340 0 340 0 0 -98z m1190 89 c125
-10 194 -36 244 -92 54 -59 76 -172 57 -285 -14 -77 -28 -108 -68 -148 -26
-27 -27 -29 -9 -40 87 -52 101 -83 101 -221 0 -101 -2 -115 -29 -168 -32 -67
-94 -118 -166 -139 -32 -9 -124 -13 -330 -13 l-285 0 -3 545 c-1 300 0 551 3
558 5 14 311 16 485 3z m1204 3 c13 -5 16 -24 16 -105 l0 -99 -220 0 -221 0 3
-122 3 -123 193 -3 192 -2 0 -95 0 -95 -190 0 -190 0 0 -125 0 -125 219 0 220
0 3 -96 c2 -53 0 -100 -3 -105 -3 -5 -155 -8 -360 -7 l-354 3 -3 150 c-2 83 0
331 3 553 l7 402 333 0 c184 0 340 -3 349 -6z m830 -22 c113 -41 191 -131 205
-236 9 -69 -3 -195 -23 -234 -15 -29 -51 -68 -90 -95 -17 -13 -16 -15 17 -35
20 -11 50 -40 66 -63 l31 -42 0 -189 0 -188 -57 -2 c-59 -2 -130 -2 -170 1
-23 1 -23 3 -23 144 0 120 -3 148 -19 177 -27 52 -87 78 -193 86 l-88 7 0
-201 c0 -110 -4 -203 -8 -206 -12 -7 -194 -15 -229 -9 l-33 5 0 544 c0 506 1
544 18 554 11 7 103 9 277 7 237 -3 265 -5 319 -25z m1524 18 l52 0 0 -445 0
-445 23 0 c12 -1 106 0 208 0 102 0 193 -2 202 -6 24 -9 25 -199 1 -208 -23
-9 -667 -7 -680 2 -8 5 -13 170 -17 550 -6 621 -15 566 93 557 36 -2 89 -5
118 -5z m902 -535 c3 -297 3 -546 1 -552 -2 -10 -37 -13 -131 -13 l-127 0 -5
548 c-3 301 -3 551 -1 555 3 4 62 6 131 5 l127 -3 5 -540z m1885 440 l0 -100
-217 -3 -218 -2 0 -121 0 -121 183 7 c108 4 188 2 196 -3 10 -7 12 -30 6 -106
l-7 -96 -189 0 -189 0 0 -125 0 -125 218 -2 217 -3 0 -105 0 -105 -335 -3
c-184 -1 -345 0 -357 3 l-23 5 0 550 0 550 168 3 c92 1 253 3 357 2 l190 0 0
-100z m-7077 -457 l-3 -553 -130 0 -130 0 -2 540 c-2 297 -1 546 2 553 3 9 40
12 135 12 l130 0 -2 -552z"/>
<path d="M2713 2593 c-10 -3 -13 -38 -13 -128 0 -103 3 -124 16 -129 9 -3 53
-6 100 -6 79 0 84 1 101 26 23 36 29 121 10 166 -9 21 -28 43 -44 51 -29 15
-148 29 -170 20z"/>
<path d="M2700 2010 l0 -140 98 0 c107 0 131 9 157 60 22 42 19 118 -5 158
-28 45 -73 62 -170 62 l-80 0 0 -140z"/>
<path d="M4653 2588 c-53 -11 -55 -16 -51 -178 l3 -125 60 -3 c85 -5 141 6
172 32 23 20 27 31 30 102 5 90 -13 140 -57 160 -38 18 -110 23 -157 12z"/>
</g>
</svg>
